<svg width="22" height="22" viewBox="0 0 22 22" fill="none" xmlns="http://www.w3.org/2000/svg">
    <path
        d="M11.003 4.54502L10.886 4.55102L10.774 4.57102C10.5741 4.61811 10.3935 4.72562 10.2568 4.87896C10.1201 5.03229 10.0339 5.224 10.01 5.42802L10.003 5.54502V10H5.544L5.428 10.007C5.2046 10.0331 4.99653 10.1338 4.8374 10.2928C4.67827 10.4517 4.57737 10.6597 4.551 10.883L4.545 11L4.552 11.117C4.57837 11.3404 4.67927 11.5483 4.8384 11.7073C4.99753 11.8662 5.2056 11.9669 5.429 11.993L5.545 12H10.002L10.003 16.454L10.01 16.57C10.0361 16.7934 10.1368 17.0015 10.2957 17.1606C10.4547 17.3198 10.6626 17.4207 10.886 17.447L11.003 17.454L11.12 17.447C11.3434 17.4207 11.5513 17.3198 11.7103 17.1606C11.8692 17.0015 11.9699 16.7934 11.996 16.57L12.003 16.454V12H16.455L16.571 11.993C16.7944 11.9669 17.0025 11.8662 17.1616 11.7073C17.3207 11.5483 17.4216 11.3404 17.448 11.117L17.455 11L17.448 10.883C17.4216 10.6597 17.3207 10.4517 17.1616 10.2928C17.0025 10.1338 16.7944 10.0331 16.571 10.007L16.455 10H12.002L12.003 5.54502L11.996 5.42802C11.9699 5.20463 11.8692 4.99656 11.7103 4.83742C11.5513 4.67829 11.3434 4.57739 11.12 4.55102L11.003 4.54502ZM7.552 -0.000976562H14.448C17.202 -0.000976562 18.733 0.578023 20.112 1.91102C21.367 3.20802 21.95 4.66902 21.997 7.21302L22 7.55002V14.448C22 17.203 21.422 18.734 20.088 20.112C18.79 21.367 17.329 21.95 14.786 21.997L14.448 22H7.552C4.798 22 3.267 21.421 1.888 20.088C0.633 18.791 0.049 17.33 0.00300002 14.786L0 14.45V7.55102C0 4.79702 0.579 3.26502 1.912 1.88702C3.21 0.633024 4.67 0.0500234 7.214 0.0020234L7.552 -0.000976562Z"
        fill="#262626" />
</svg>