<svg width="23" height="23" viewBox="0 0 23 23" fill="none" xmlns="http://www.w3.org/2000/svg">
    <path
        d="M11.5031 0.631034C10.087 0.57923 8.67512 0.814948 7.35267 1.32396C6.03022 1.83296 4.82465 2.6047 3.80874 3.59257C2.79283 4.58044 1.98767 5.76395 1.44186 7.07164C0.896047 8.37932 0.620917 9.78406 0.63308 11.201C0.610203 12.6654 0.903128 14.1175 1.49191 15.4585C2.0807 16.7995 2.95151 17.9979 4.04508 18.972L4.09908 20.752C4.10767 21.0252 4.18316 21.2921 4.31894 21.5293C4.45472 21.7664 4.64664 21.9667 4.87785 22.1124C5.10906 22.2581 5.3725 22.3449 5.64505 22.365C5.91761 22.3852 6.19094 22.3381 6.44108 22.228L8.37608 21.356C9.39502 21.6344 10.4468 21.7743 11.5031 21.772C12.9191 21.8237 14.3309 21.5879 15.6533 21.0788C16.9757 20.5698 18.1812 19.798 19.1971 18.8102C20.213 17.8223 21.0182 16.6389 21.564 15.3313C22.1099 14.0236 22.3851 12.619 22.3731 11.202C22.3852 9.78506 22.1101 8.38032 21.5643 7.07264C21.0185 5.76495 20.2133 4.58144 19.1974 3.59357C18.1815 2.6057 16.9759 1.83396 15.6535 1.32496C14.331 0.815948 12.9192 0.57923 11.5031 0.631034ZM17.2891 9.63203L14.7231 13.615C14.6068 13.7989 14.4538 13.9568 14.2736 14.0787C14.0934 14.2006 13.8899 14.2839 13.676 14.3234C13.462 14.3628 13.2422 14.3575 13.0304 14.3079C12.8185 14.2583 12.6193 14.1654 12.4451 14.035L9.99308 12.195C9.88354 12.1128 9.7502 12.0685 9.61325 12.0689C9.47629 12.0693 9.34318 12.1142 9.23408 12.197L6.67808 14.246C6.55547 14.341 6.40331 14.3897 6.24836 14.3835C6.09341 14.3773 5.9456 14.3167 5.83093 14.2123C5.71626 14.1079 5.64208 13.9664 5.62144 13.8127C5.6008 13.659 5.63502 13.503 5.71808 13.372L8.28308 9.39003C8.39922 9.20616 8.55216 9.0483 8.73228 8.92641C8.9124 8.80452 9.1158 8.72123 9.32968 8.68178C9.54355 8.64233 9.76328 8.64758 9.97503 8.69718C10.1868 8.74679 10.386 8.83969 10.5601 8.97003L13.0131 10.81C13.1226 10.8919 13.2558 10.9358 13.3926 10.9353C13.5293 10.9347 13.6622 10.8897 13.7711 10.807L16.3271 8.75703C16.4496 8.66139 16.602 8.61214 16.7574 8.61799C16.9127 8.62383 17.061 8.6844 17.176 8.78899C17.291 8.89358 17.3653 9.03545 17.3858 9.18954C17.4063 9.34362 17.3717 9.5 17.2881 9.63103L17.2891 9.63203Z"
        fill="#262626" />
</svg>